<svg width="16" height="18" viewBox="0 0 16 18" fill="none" xmlns="http://www.w3.org/2000/svg">
<path d="M13.7971 16.313C13.7429 16.9089 13.2553 17.3424 12.6594 17.3424H3.305C2.70909 17.3424 2.22144 16.8909 2.16731 16.313L1.11984 5.33333L14.8445 5.33333L13.7971 16.313Z" fill="black"/>
<path d="M1.13769 1.71557L5.70658 1.71557V1.1377C5.70658 0.505643 6.21218 0 6.84427 0L9.1377 0C9.76975 0 10.2754 0.505643 10.2754 1.1377V1.71557L14.8623 1.71557C15.4944 1.71557 16 2.22122 16 2.85327C16 3.48532 15.4944 3.99097 14.8623 3.99097L1.13769 3.99097C0.5056 3.99097 -1.19209e-07 3.48532 -1.19209e-07 2.85327C-1.19209e-07 2.22122 0.5056 1.71557 1.13769 1.71557Z" fill="black"/>
</svg>
